<svg width="217" height="46" viewBox="0 0 217 46" fill="none" xmlns="http://www.w3.org/2000/svg">
<g id="Frame">
<g id="Group">
<path id="Vector" d="M64.2446 27.1769C63.5564 26.0408 62.3141 25.0572 60.5179 24.2432C59.5778 23.8024 58.9063 23.3784 58.5034 22.9884C58.0166 22.5136 57.7648 21.92 57.7648 21.2248C57.7648 19.6477 58.5874 18.8507 60.2157 18.8507C61.3069 18.8507 62.3141 19.139 63.271 19.7325L64.2782 16.7819C63.1031 15.9849 61.5083 15.5779 59.5107 15.5779C57.5801 15.5779 56.0189 16.1884 54.827 17.4093C53.6519 18.6303 53.0476 20.1395 53.0476 21.937C53.0476 24.5146 54.3906 26.4138 57.0933 27.6348C58.1341 28.1096 58.8727 28.5844 59.2924 29.0253C59.7121 29.4662 59.9303 30.0258 59.9303 30.6872C59.9303 31.4333 59.6785 32.0268 59.1917 32.4677C58.7049 32.9086 58.0334 33.146 57.2108 33.146C55.9518 33.146 54.8606 32.8238 53.9205 32.1625L52.8293 35.554C54.0548 36.3849 55.8343 36.7919 58.1677 36.7919C60.1654 36.7919 61.7937 36.1814 63.0863 34.9605C64.3622 33.7395 65.0169 32.1964 65.0169 30.3311C65.0169 29.0592 64.765 28.0078 64.2446 27.1769Z" fill="white"/>
<path id="Vector_2" d="M70.8755 15.8662L64.4963 36.4698H68.7939L69.8347 32.0608H75.962L76.9524 36.4698H81.9047L75.5423 15.8662H70.8755ZM70.5397 29.2967L72.4367 22.5814C72.6549 21.6149 72.8228 20.7839 72.9739 20.0887H73.041C73.1082 20.7839 73.2593 21.6149 73.5111 22.5814L75.3241 29.2967H70.5397Z" fill="white"/>
<path id="Vector_3" d="M94.0587 26.3461C94.0587 27.0074 94.0923 27.7027 94.1594 28.4149H94.109C93.7901 27.7535 93.4543 27.0922 93.0682 26.4308L86.8234 15.8662H82.593V36.4698H86.6052V25.0064C86.6052 24.3111 86.5716 23.565 86.5044 22.768H86.5716C86.8905 23.548 87.2431 24.2603 87.646 24.9216L94.4448 36.4698H98.1548V15.8662H94.109V26.3461H94.0587Z" fill="white"/>
<path id="Vector_4" d="M113.868 15.8662L110.527 27.3974C110.208 28.5675 110.023 29.3476 109.973 29.7037H109.906C109.771 28.9406 109.587 28.1775 109.369 27.3974L106.196 15.8662H101.512L99.6152 36.4698H103.577L104.349 24.6164C104.433 23.8024 104.45 22.9545 104.416 22.1066H104.467C104.651 22.9715 104.853 23.8024 105.088 24.6164C107.186 31.976 108.328 35.9271 108.529 36.4698H110.93L114.371 24.6164C114.707 23.3445 114.908 22.4967 114.992 22.1066H115.043C115.043 22.9884 115.076 23.8194 115.127 24.6164C115.765 32.0438 115.832 35.995 115.865 36.4698H120.431L118.518 15.8662H113.868Z" fill="white"/>
<path id="Vector_5" d="M127.465 15.8662L121.086 36.4698H125.384L126.425 32.0608H132.552L133.526 36.4698H138.478L132.149 15.8662H127.465ZM127.13 29.2967L129.027 22.5814C129.245 21.6149 129.413 20.7839 129.564 20.0887H129.631C129.681 20.7839 129.849 21.6149 130.101 22.5814L131.914 29.2967H127.13Z" fill="white"/>
<path id="Vector_6" d="M148.684 27.3126C150.027 27.0922 151.135 26.4987 152.042 25.5321C152.931 24.5655 153.385 23.4124 153.385 22.0727C153.385 20.0547 152.73 18.4946 151.42 17.3754C150.044 16.2223 147.996 15.6458 145.31 15.6458C142.859 15.6458 140.811 16.0527 139.183 16.8497V36.5376H143.917V27.4483L148.768 36.5376H154.073L148.667 27.3805V27.3126H148.684ZM144.957 26.3291C144.504 26.3291 144.152 26.2952 143.917 26.2104V18.6812C144.353 18.4946 144.823 18.4099 145.31 18.4099C146.552 18.4099 147.425 18.732 147.929 19.3595C148.416 19.9869 148.667 20.9874 148.667 22.3271C148.667 25.0064 147.442 26.3291 144.957 26.3291Z" fill="white"/>
<path id="Vector_7" d="M153.956 19.139H158.387V36.4698H163.205V19.139H167.62V15.8662H153.956V19.139Z" fill="white"/>
<path id="Vector_8" d="M174.402 15.8662H169.618V36.4698H174.402V15.8662Z" fill="white"/>
<path id="Vector_9" d="M188.185 15.8662V26.3461C188.185 27.0074 188.218 27.7027 188.285 28.4149H188.235C187.916 27.7535 187.58 27.0922 187.194 26.4308L180.949 15.8662H176.719V36.4698H180.731V25.0064C180.731 24.3111 180.698 23.565 180.63 22.768H180.681C181 23.548 181.352 24.2603 181.755 24.9216L188.52 36.4698H192.23V15.8662H188.185Z" fill="white"/>
<path id="Vector_10" d="M34.8502 16.5445L36.5961 13.4243L32.265 9.04926L29.1762 10.8298C27.6485 9.88019 25.9698 9.16796 24.1904 8.74402L23.2335 5.2677H17.1062L16.1661 8.72706C14.3698 9.16796 12.6911 9.88019 11.1635 10.8129L8.07465 9.04926L3.74355 13.4243L5.5062 16.5445C4.56612 18.0877 3.86106 19.7835 3.44138 21.581L0 22.5476V28.7371L3.42459 29.6867C3.84427 31.4843 4.54933 33.197 5.48942 34.7232L3.72676 37.8434L8.07465 42.2354L11.1635 40.4549C12.6911 41.4045 14.3698 42.1167 16.1493 42.5407L17.0894 46H23.2167L24.1568 42.5407C25.953 42.1167 27.6317 41.4045 29.1426 40.4549L32.2314 42.2354L36.5625 37.8603L34.7999 34.7401C35.74 33.197 36.445 31.5012 36.8647 29.7037L40.2893 28.7541V22.5645L36.8647 21.6149C36.4786 19.7835 35.7735 18.0877 34.8502 16.5445ZM20.1782 35.8424C14.6049 35.8424 10.0891 31.2638 10.0891 25.6508C10.0723 20.0209 14.6049 15.4423 20.1614 15.4423C25.718 15.4423 30.2505 20.0209 30.2505 25.6339C30.2673 31.2638 25.7348 35.8424 20.1782 35.8424Z" fill="white"/>
<path id="Vector_11" d="M20.1613 17.8503C15.8974 17.8503 12.4392 21.3436 12.4392 25.6509C12.4392 29.9581 15.8974 33.4514 20.1613 33.4514C24.4253 33.4514 27.8834 29.9581 27.8834 25.6509C27.8834 21.3436 24.4253 17.8503 20.1613 17.8503Z" fill="white"/>
</g>
</g>
</svg>
